<svg xmlns="http://www.w3.org/2000/svg" version="1.1" xmlns:xlink="http://www.w3.org/1999/xlink" xmlns:svgjs="http://svgjs.dev/svgjs" width="1000" height="1000" viewBox="0 0 1000 1000"><rect width="1000" height="1000" fill="#046380"></rect><g transform="matrix(0.7,0,0,0.7,149.57596087327124,288.5560432417881)"><svg viewBox="0 0 396 239" data-background-color="#046380" preserveAspectRatio="xMidYMid meet" height="603" width="1000" xmlns="http://www.w3.org/2000/svg" xmlns:xlink="http://www.w3.org/1999/xlink"><g id="tight-bounds" transform="matrix(1,0,0,1,0.239885013437231,0.22306483111267994)"><svg viewBox="0 0 395.52 238.55387033777464" height="238.55387033777464" width="395.52"><g><svg viewBox="0 0 395.52 238.55387033777464" height="238.55387033777464" width="395.52"><g transform="matrix(1,0,0,1,0,174.49400646567813)"><svg viewBox="0 0 395.52 64.05986387209651" height="64.05986387209651" width="395.52"><g><svg viewBox="0 0 395.52 64.05986387209651" height="64.05986387209651" width="395.52"><g><svg viewBox="0 0 395.52 34.55082956259426" height="34.55082956259426" width="395.52"><g transform="matrix(1,0,0,1,0,0)"><svg width="395.52" viewBox="2 -34.25 394.5199890136719 34.75" height="34.55082956259426" data-palette-color="#ffffff"><g class="undefined-text-0" data-fill-palette-color="primary" id="text-0"><path d="M28.15-9.05L28.15-1.5Q25.1 0.4 19.35 0.4L19.35 0.4Q11.95 0.4 6.98-4.38 2-9.15 2-16.75L2-16.75Q2-24.45 6.83-29.3 11.65-34.15 19.4-34.15L19.4-34.15Q25.1-34.15 28.15-32.25L28.15-32.25 28.15-24.85Q24.4-27.15 19.8-27.15L19.8-27.15Q15.75-27.15 13-24.33 10.25-21.5 10.25-16.75L10.25-16.75Q10.25-12.1 13-9.38 15.75-6.65 20.1-6.65L20.1-6.65Q24.8-6.65 28.15-9.05L28.15-9.05ZM65.45-16.95L65.45-16.95Q65.45-9.2 60.97-4.42 56.5 0.35 49.05 0.35L49.05 0.35Q41.55 0.35 37.1-4.4 32.65-9.15 32.65-16.95L32.65-16.95Q32.65-24.7 37.12-29.48 41.6-34.25 49.05-34.25L49.05-34.25Q56.55-34.25 61-29.5 65.45-24.75 65.45-16.95ZM43.1-24.48Q40.9-21.7 40.9-16.95 40.9-12.2 43.1-9.43 45.3-6.65 49.05-6.65 52.8-6.65 55-9.43 57.2-12.2 57.2-16.95 57.2-21.7 55-24.48 52.8-27.25 49.05-27.25 45.3-27.25 43.1-24.48ZM80.9-14.3L80.9-14.3 80.55-13.1 88.65-13.1 88.3-14.3Q86.85-19.2 85.92-22.65 85-26.1 84.8-27.1L84.8-27.1 84.6-28.1Q84.2-25.35 80.9-14.3ZM78.7-6.9L76.65 0 68.6 0 79.85-33.7 89.55-33.7 100.8 0 92.55 0 90.5-6.9 78.7-6.9ZM130.09-9.05L130.09-1.5Q127.04 0.4 121.29 0.4L121.29 0.4Q113.89 0.4 108.92-4.38 103.94-9.15 103.94-16.75L103.94-16.75Q103.94-24.45 108.77-29.3 113.59-34.15 121.34-34.15L121.34-34.15Q127.04-34.15 130.09-32.25L130.09-32.25 130.09-24.85Q126.34-27.15 121.74-27.15L121.74-27.15Q117.69-27.15 114.94-24.33 112.19-21.5 112.19-16.75L112.19-16.75Q112.19-12.1 114.94-9.38 117.69-6.65 122.04-6.65L122.04-6.65Q126.74-6.65 130.09-9.05L130.09-9.05ZM163.64-33.7L163.64 0 155.89 0 155.89-13.45 143.54-13.45 143.54 0 135.84 0 135.84-33.7 143.54-33.7 143.54-20 155.89-20 155.89-33.7 163.64-33.7Z" fill="#ffffff" data-fill-palette-color="primary"></path><path d="M177.09-14.3L177.09-14.3 176.74-13.1 184.84-13.1 184.49-14.3Q183.04-19.2 182.12-22.65 181.19-26.1 180.99-27.1L180.99-27.1 180.79-28.1Q180.39-25.35 177.09-14.3ZM174.89-6.9L172.84 0 164.79 0 176.04-33.7 185.74-33.7 196.99 0 188.74 0 186.69-6.9 174.89-6.9ZM215.94 0L215.94 0 201.39 0 201.39-33.7 214.49-33.7Q220.04-33.7 222.94-31.08 225.84-28.45 225.84-24.4L225.84-24.4Q225.84-21.75 224.44-19.75 223.04-17.75 220.79-17.05L220.79-17.05Q226.64-15.3 226.64-9.15L226.64-9.15Q226.64-5.15 223.76-2.58 220.89 0 215.94 0ZM213.19-27.55L213.19-27.55 209.09-27.55 209.09-20 211.94-20Q214.94-20 216.46-21.1 217.99-22.2 217.99-24L217.99-24Q217.99-27.55 213.19-27.55ZM213.19-13.95L213.19-13.95 209.09-13.95 209.09-6.15 213.14-6.15Q218.84-6.15 218.84-10.05 218.84-13.95 213.19-13.95ZM243.14 0L243.14 0 231.64 0 231.64-33.7 243.23-33.7Q250.84-33.7 255.69-29.03 260.54-24.35 260.54-17.4L260.54-17.4Q260.54-9.3 255.76-4.65 250.98 0 243.14 0ZM242.98-27.35L242.98-27.35 239.54-27.35 239.54-6.3 243.04-6.3Q247.69-6.3 250.21-9.2 252.73-12.1 252.73-17.4L252.73-17.4Q252.73-21.9 250.19-24.63 247.64-27.35 242.98-27.35ZM297.33-16.95L297.33-16.95Q297.33-9.2 292.86-4.42 288.38 0.35 280.93 0.35L280.93 0.35Q273.43 0.35 268.98-4.4 264.53-9.15 264.53-16.95L264.53-16.95Q264.53-24.7 269.01-29.48 273.48-34.25 280.93-34.25L280.93-34.25Q288.43-34.25 292.88-29.5 297.33-24.75 297.33-16.95ZM274.98-24.48Q272.78-21.7 272.78-16.95 272.78-12.2 274.98-9.43 277.18-6.65 280.93-6.65 284.68-6.65 286.88-9.43 289.08-12.2 289.08-16.95 289.08-21.7 286.88-24.48 284.68-27.25 280.93-27.25 277.18-27.25 274.98-24.48ZM329.73-33.7L329.73-13.05Q329.73-6.45 326.03-2.98 322.33 0.5 316.03 0.5L316.03 0.5Q309.83 0.5 306.08-2.95 302.33-6.4 302.33-12.7L302.33-12.7 302.33-33.7 310.03-33.7 310.03-12.75Q310.03-6.5 316.03-6.5 322.03-6.5 322.03-13L322.03-13 322.03-33.7 329.73-33.7ZM356.13-6.75L356.13 0 335.98 0 335.98-33.7 343.68-33.7 343.68-6.75 356.13-6.75ZM368.58-33.7L368.58 0 360.88 0 360.88-33.7 368.58-33.7ZM396.52-6.15L396.52 0 375.57 0 375.57-33.7 396.32-33.7 396.32-27.55 383.32-27.55 383.32-19.9 394.92-19.9 394.92-13.8 383.32-13.8 383.32-6.15 396.52-6.15Z" fill="#ffffff" data-fill-palette-color="primary"></path></g></svg></g></svg></g><g transform="matrix(1,0,0,1,0,42.70745120241326)"><svg viewBox="0 0 395.52 21.35241266968325" height="21.35241266968325" width="395.52"><g transform="matrix(1,0,0,1,0,0)"><svg width="395.52" viewBox="3.700000047683716 -36.25 867.3204956054688 46.75" height="21.35241266968325" data-palette-color="#ffffff"><g class="undefined-text-1" data-fill-palette-color="secondary" id="text-1"><path d="M23-34.4Q26.2-34.4 28.7-32.93 31.2-31.45 32.6-28.88 34-26.3 34-23.1L34-23.1 34-22.45Q34-19.25 32.6-16.65 31.2-14.05 28.7-12.58 26.2-11.1 23-11.1L23-11.1 14.75-11.1 14.75 0 3.7 0 3.7-34.4 23-34.4ZM14.75-26.25L14.75-19.15 19.3-19.15Q21.05-19.15 21.93-20.05 22.8-20.95 22.8-22.5L22.8-22.5 22.8-22.9Q22.8-24.5 21.93-25.38 21.05-26.25 19.3-26.25L19.3-26.25 14.75-26.25ZM78.44-27Q85.69-27 89.51-23.6 93.34-20.2 93.34-13.2L93.34-13.2 93.34-11.5 73.54-11.5Q73.54-8.65 74.81-7.2 76.09-5.75 78.84-5.75L78.84-5.75Q81.34-5.75 82.51-6.8 83.69-7.85 83.69-9.6L83.69-9.6 93.34-9.6Q93.34-4.8 89.69-2.1 86.04 0.6 79.04 0.6L79.04 0.6Q71.69 0.6 67.64-2.83 63.59-6.25 63.59-13.2L63.59-13.2Q63.59-20 67.54-23.5 71.49-27 78.44-27L78.44-27ZM78.84-20.65Q74.14-20.65 73.59-16.2L73.59-16.2 83.29-16.2Q83.29-18.25 82.11-19.45 80.94-20.65 78.84-20.65L78.84-20.65ZM139.87-27.05Q141.02-27.05 141.92-26.78 142.82-26.5 142.82-26.45L142.82-26.45 142.82-18.1 139.62-18.1Q136.52-18.1 135.15-16.5 133.77-14.9 133.77-11.75L133.77-11.75 133.77 0 123.82 0 123.82-26.4 131.97-26.4 132.62-22.4Q133.52-24.7 135.47-25.88 137.42-27.05 139.87-27.05L139.87-27.05ZM184.26-27Q189.56-27 193.23-24.93 196.91-22.85 196.91-18.5L196.91-18.5 187.66-18.5Q187.66-19.95 186.36-20.55L186.36-20.55Q185.46-21.05 184.11-21.05L184.11-21.05Q180.51-21.05 180.51-19.35L180.51-19.35Q180.51-18.4 181.76-18 183.01-17.6 185.86-17.15L185.86-17.15Q189.36-16.65 191.71-15.98 194.06-15.3 195.81-13.58 197.56-11.85 197.56-8.75L197.56-8.75Q197.56-3.7 193.78-1.55 190.01 0.6 183.91 0.6L183.91 0.6Q180.41 0.6 177.31-0.38 174.21-1.35 172.26-3.4 170.31-5.45 170.31-8.6L170.31-8.6 179.56-8.6 179.56-8.4Q179.61-6.7 180.98-6.03 182.36-5.35 183.91-5.35L183.91-5.35Q188.06-5.35 188.06-7.3L188.06-7.3Q188.06-8.3 186.76-8.75 185.46-9.2 182.51-9.7L182.51-9.7Q178.96-10.3 176.68-11 174.41-11.7 172.71-13.38 171.01-15.05 171.01-18.05L171.01-18.05Q171.01-22.9 174.68-24.95 178.36-27 184.26-27L184.26-27ZM241.59-27Q248.54-27 252.52-23.48 256.49-19.95 256.49-13.2L256.49-13.2Q256.49-6.45 252.52-2.93 248.54 0.6 241.59 0.6L241.59 0.6Q234.64 0.6 230.69-2.9 226.74-6.4 226.74-13.2L226.74-13.2Q226.74-20 230.69-23.5 234.64-27 241.59-27L241.59-27ZM241.59-20.25Q236.69-20.25 236.69-14.6L236.69-14.6 236.69-11.75Q236.69-6.15 241.59-6.15L241.59-6.15Q246.54-6.15 246.54-11.75L246.54-11.75 246.54-14.6Q246.54-20.25 241.59-20.25L241.59-20.25ZM305.18-27Q309.78-27 312.08-24.45 314.38-21.9 314.38-17.1L314.38-17.1 314.38 0 304.43 0 304.43-15.9Q304.43-17.6 303.55-18.63 302.68-19.65 301.08-19.65L301.08-19.65Q299.23-19.65 298.08-18.45 296.93-17.25 296.93-15.5L296.93-15.5 296.93 0 286.98 0 286.98-26.4 295.13-26.4 295.78-22.4Q297.33-24.5 299.85-25.75 302.38-27 305.18-27L305.18-27ZM359.06-27Q365.11-27 368.91-24.98 372.71-22.95 372.71-18.4L372.71-18.4 372.71-8.1Q372.71-7.25 373.11-6.7 373.51-6.15 374.31-6.15L374.31-6.15 376.11-6.15 376.11-0.4Q375.96-0.3 375.34-0.08 374.71 0.15 373.56 0.38 372.41 0.6 370.91 0.6L370.91 0.6Q368.01 0.6 366.14-0.28 364.26-1.15 363.56-2.7L363.56-2.7Q361.66-1.2 359.31-0.3 356.96 0.6 353.81 0.6L353.81 0.6Q344.51 0.6 344.51-6.8L344.51-6.8Q344.51-10.65 346.59-12.68 348.66-14.7 352.56-15.45 356.46-16.2 362.76-16.2L362.76-16.2 362.76-17.5Q362.76-19.05 361.69-19.85 360.61-20.65 358.91-20.65L358.91-20.65Q357.36-20.65 356.24-20.1 355.11-19.55 355.11-18.35L355.11-18.35 355.11-18.15 345.31-18.15Q345.26-18.4 345.26-18.85L345.26-18.85Q345.26-22.6 348.84-24.8 352.41-27 359.06-27L359.06-27ZM362.76-11.5Q358.51-11.5 356.49-10.58 354.46-9.65 354.46-8.1L354.46-8.1Q354.46-5.6 357.86-5.6L357.86-5.6Q359.81-5.6 361.29-6.65 362.76-7.7 362.76-9.25L362.76-9.25 362.76-11.5ZM415.35 0L405.4 0 405.4-36.25 415.35-36.25 415.35 0Z" fill="#ffffff" data-fill-palette-color="primary"></path><path d="M495.771-26.4L501.371-26.4 501.371-19.65 495.771-19.65 495.771-9.6Q495.771-7.8 496.371-6.98 496.971-6.15 498.571-6.15L498.571-6.15 501.371-6.15 501.371-0.3Q500.171 0.1 498.271 0.35 496.371 0.6 494.971 0.6L494.971 0.6Q490.571 0.6 488.201-1 485.821-2.6 485.821-6.45L485.821-6.45 485.821-19.65 482.121-19.65 482.121-26.4 486.221-26.4 488.371-34.4 495.771-34.4 495.771-26.4ZM547.711-27.05Q548.861-27.05 549.761-26.78 550.661-26.5 550.661-26.45L550.661-26.45 550.661-18.1 547.461-18.1Q544.361-18.1 542.981-16.5 541.611-14.9 541.611-11.75L541.611-11.75 541.611 0 531.661 0 531.661-26.4 539.811-26.4 540.461-22.4Q541.361-24.7 543.311-25.88 545.261-27.05 547.711-27.05L547.711-27.05ZM592.591-27Q598.641-27 602.441-24.98 606.241-22.95 606.241-18.4L606.241-18.4 606.241-8.1Q606.241-7.25 606.641-6.7 607.041-6.15 607.841-6.15L607.841-6.15 609.641-6.15 609.641-0.4Q609.491-0.3 608.871-0.08 608.241 0.15 607.091 0.38 605.941 0.6 604.441 0.6L604.441 0.6Q601.541 0.6 599.671-0.28 597.791-1.15 597.091-2.7L597.091-2.7Q595.191-1.2 592.841-0.3 590.491 0.6 587.341 0.6L587.341 0.6Q578.041 0.6 578.041-6.8L578.041-6.8Q578.041-10.65 580.121-12.68 582.191-14.7 586.091-15.45 589.991-16.2 596.291-16.2L596.291-16.2 596.291-17.5Q596.291-19.05 595.221-19.85 594.141-20.65 592.441-20.65L592.441-20.65Q590.891-20.65 589.771-20.1 588.641-19.55 588.641-18.35L588.641-18.35 588.641-18.15 578.841-18.15Q578.791-18.4 578.791-18.85L578.791-18.85Q578.791-22.6 582.371-24.8 585.941-27 592.591-27L592.591-27ZM596.291-11.5Q592.041-11.5 590.021-10.58 587.991-9.65 587.991-8.1L587.991-8.1Q587.991-5.6 591.391-5.6L591.391-5.6Q593.341-5.6 594.821-6.65 596.291-7.7 596.291-9.25L596.291-9.25 596.291-11.5ZM648.881-29.5L638.931-29.5 638.931-36.25 648.881-36.25 648.881-29.5ZM648.881 0L638.931 0 638.931-26.4 648.881-26.4 648.881 0ZM699.111-27Q703.711-27 706.011-24.45 708.311-21.9 708.311-17.1L708.311-17.1 708.311 0 698.361 0 698.361-15.9Q698.361-17.6 697.491-18.63 696.611-19.65 695.011-19.65L695.011-19.65Q693.161-19.65 692.011-18.45 690.861-17.25 690.861-15.5L690.861-15.5 690.861 0 680.911 0 680.911-26.4 689.061-26.4 689.711-22.4Q691.261-24.5 693.791-25.75 696.311-27 699.111-27L699.111-27ZM750.251-29.5L740.301-29.5 740.301-36.25 750.251-36.25 750.251-29.5ZM750.251 0L740.301 0 740.301-26.4 750.251-26.4 750.251 0ZM800.481-27Q805.081-27 807.381-24.45 809.681-21.9 809.681-17.1L809.681-17.1 809.681 0 799.731 0 799.731-15.9Q799.731-17.6 798.861-18.63 797.981-19.65 796.381-19.65L796.381-19.65Q794.531-19.65 793.381-18.45 792.231-17.25 792.231-15.5L792.231-15.5 792.231 0 782.281 0 782.281-26.4 790.431-26.4 791.081-22.4Q792.631-24.5 795.161-25.75 797.681-27 800.481-27L800.481-27ZM871.021-31.35Q871.021-28.3 869.491-26.65 867.971-25 864.921-24.2L864.921-24.2Q866.371-23.1 867.191-21.63 868.021-20.15 868.021-18.5L868.021-18.5Q868.021-14.3 864.841-12.15 861.671-10 856.921-10L856.921-10 853.121-10Q849.971-10 849.971-8.55L849.971-8.55Q849.971-7.85 850.671-7.43 851.371-7 853.121-7L853.121-7 862.121-7Q866.521-7 868.771-4.7 871.021-2.4 871.021 1.45L871.021 1.45Q871.021 4.3 869.521 6.35 868.021 8.4 865.471 9.45 862.921 10.5 859.921 10.5L859.921 10.5 845.221 10.5Q843.421 10.5 841.891 9.65 840.371 8.8 839.471 7.33 838.571 5.85 838.571 4.05L838.571 4.05Q838.571 2.1 839.771 0.53 840.971-1.05 842.771-1.85L842.771-1.85Q841.571-2.7 840.871-3.9 840.171-5.1 840.171-6.5L840.171-6.5Q840.171-8.45 841.621-10.03 843.071-11.6 845.221-12.15L845.221-12.15Q843.271-13.4 842.121-15.03 840.971-16.65 840.971-18.45L840.971-18.45Q840.971-23.05 844.691-25.03 848.421-27 854.571-27L854.571-27Q857.271-27 858.921-26.7L858.921-26.7Q861.371-28.25 862.091-29.53 862.821-30.8 862.821-31.35L862.821-31.35 871.021-31.35ZM854.471-21.8Q852.821-21.8 851.771-20.95 850.721-20.1 850.721-18.5L850.721-18.5Q850.721-16.85 851.691-16.03 852.671-15.2 854.471-15.2L854.471-15.2Q856.271-15.2 857.291-16.03 858.321-16.85 858.321-18.5L858.321-18.5Q858.321-20.15 857.291-20.98 856.271-21.8 854.471-21.8L854.471-21.8ZM850.621 0Q849.471 0 848.741 0.63 848.021 1.25 848.021 2.4L848.021 2.4Q848.021 3.55 848.771 4.25 849.521 4.95 850.621 4.95L850.621 4.95 858.421 4.95Q859.521 4.95 860.291 4.28 861.071 3.6 861.071 2.45L861.071 2.45Q861.071 1.3 860.321 0.65 859.571 0 858.421 0L858.421 0 850.621 0Z" fill="#ffffff" data-fill-palette-color="primary"></path></g></svg></g></svg></g></svg></g></svg></g><g transform="matrix(1,0,0,1,118.66961840697994,0)"><svg viewBox="0 0 158.1807631860401 158.1807631860401" height="158.1807631860401" width="158.1807631860401"><g><svg></svg></g><g id="icon-0"><svg viewBox="0 0 158.1807631860401 158.1807631860401" height="158.1807631860401" width="158.1807631860401"><g><path d="M0 79.09c0-43.68 35.41-79.09 79.09-79.09 43.68 0 79.09 35.41 79.091 79.09 0 43.68-35.41 79.09-79.091 79.091-43.68 0-79.09-35.41-79.09-79.091zM79.09 155.065c41.96 0 75.975-34.015 75.975-75.975 0-41.96-34.015-75.975-75.975-75.974-41.96 0-75.975 34.015-75.974 75.974 0 41.96 34.015 75.975 75.974 75.975z" data-fill-palette-color="accent" fill="#ffffff" stroke="transparent"></path></g><g transform="matrix(1,0,0,1,31.297659373375176,53.53975471941639)"><svg viewBox="0 0 95.58544443928976 51.10125374720733" height="51.10125374720733" width="95.58544443928976"><g><svg xmlns="http://www.w3.org/2000/svg" xmlns:xlink="http://www.w3.org/1999/xlink" version="1.1" x="0" y="0" viewBox="13.251953125 30.35400390625 73.49609375 39.2919921875" enable-background="new 0 0 100 100" xml:space="preserve" height="51.10125374720733" width="95.58544443928976" class="icon-a-0" data-fill-palette-color="accent" id="a-0"><g fill="#ffffff" data-fill-palette-color="accent"><path fill="#ffffff" d="M82.931 45.413v-6.434c0-2.109-1.716-3.825-3.826-3.825h-3.157v-2.057c0-1.512-1.23-2.743-2.742-2.743h-6.257c-0.414 0-0.75 0.336-0.75 0.75v14.28H33.977V31.104c0-0.414-0.336-0.75-0.75-0.75h-6.433c-1.512 0-2.742 1.23-2.742 2.743v2.057h-3.157c-2.109 0-3.825 1.716-3.826 3.825v6.434c-2.161 0.36-3.817 2.23-3.817 4.491v0.566c0 2.262 1.656 4.131 3.817 4.492v6.059c0 2.109 1.716 3.825 3.826 3.825h3.157v2.057c0 1.512 1.23 2.743 2.742 2.743h6.433c0.414 0 0.75-0.336 0.75-0.75V54.616h32.222v14.28c0 0.414 0.336 0.75 0.75 0.75h6.257c1.512 0 2.742-1.23 2.742-2.743v-2.057h3.157c2.109 0 3.825-1.716 3.826-3.825V54.962c2.161-0.36 3.817-2.23 3.817-4.492v-0.566C86.748 47.643 85.092 45.773 82.931 45.413zM73.206 68.146h-5.507V31.854h5.507c0.685 0 1.242 0.558 1.242 1.243v2.647c-0.012 0.053-0.032 0.103-0.032 0.16v28.192c0 0.057 0.02 0.107 0.032 0.16v2.647C74.448 67.588 73.891 68.146 73.206 68.146zM75.916 36.654h3.189c1.282 0 2.325 1.043 2.326 2.325v7.108 8.201 6.733c0 1.282-1.043 2.325-2.326 2.325h-3.189V36.654zM26.794 68.146c-0.685 0-1.242-0.558-1.242-1.243v-2.647c0.012-0.053 0.032-0.103 0.032-0.16V35.904c0-0.057-0.02-0.107-0.032-0.16v-2.647c0-0.685 0.558-1.243 1.242-1.243h5.683v36.292H26.794zM18.569 54.288v-8.201-7.108c0-1.282 1.043-2.325 2.326-2.325h3.189v26.692h-3.189c-1.282 0-2.325-1.043-2.326-2.325V54.288zM14.752 50.47v-0.566c0-1.433 0.987-2.639 2.317-2.974v6.515C15.739 53.109 14.752 51.903 14.752 50.47zM33.977 53.116v-6.232h32.222v6.232H33.977zM85.248 50.47c0 1.433-0.987 2.639-2.317 2.975v-6.515c1.33 0.335 2.317 1.542 2.317 2.974V50.47z" data-fill-palette-color="accent"></path></g></svg></g></svg></g></svg></g></svg></g><g></g></svg></g><defs></defs></svg><rect width="395.52" height="238.55387033777464" fill="none" stroke="none" visibility="hidden"></rect></g></svg></g></svg>